<svg xmlns="http://www.w3.org/2000/svg" viewBox="0 0 512 512" width="512" height="512" role="img" aria-label="AURA Carballo">
<rect width="512" height="512" rx="110" fill="#15110e"/>
<circle cx="256" cy="256" r="200" fill="#d9b57e" fill-opacity="0.16"/>
<path fill="#f4ecdf" transform="translate(91.1,370.2)" d="M66.2668603515625 -14.559829101562501Q64.0268603515625 -19.039829101562503 57.86677490234375 -22.866535644531254Q51.706689453125 -26.6932421875 51.706689453125 -28.933242187500003Q51.706689453125 -31.1732421875 49.933310546875006 -35.186621093750006Q48.159931640625004 -39.2 45.919931640625 -41.440000000000005Q43.119931640625005 -44.800000000000004 47.226621093750005 -57.586689453125004Q51.333310546875005 -70.37337890625001 59.92 -88.94674072265626Q68.506689453125 -107.5201025390625 79.146689453125 -127.12010253906251Q83.62668945312501 -131.6001025390625 88.106689453125 -138.8801025390625Q92.586689453125 -146.1601025390625 94.82668945312501 -148.40010253906252Q94.82668945312501 -150.64010253906253 96.506689453125 -152.6001025390625Q98.18668945312501 -154.5601025390625 100.42668945312501 -154.5601025390625L103.41344726562501 -161.65354980468751Q104.16013671875001 -164.080205078125 109.7819899019282 -170.80020507812503Q115.40384308510639 -177.52020507812503 123.6886793550532 -185.640205078125Q131.973515625 -193.760205078125 140.51351989746095 -201.16747314453127Q149.0535241699219 -208.57474121093753 154.7468603515625 -211.8668603515625Q166.50686035156252 -219.7068603515625 179.10686035156252 -219.89348144531252Q191.7068603515625 -220.08010253906252 200.66686035156252 -212.80010253906252Q202.34686035156253 -211.12010253906251 207.57356689453127 -206.4534130859375Q212.8002734375 -201.7867236328125 219.61365234375 -196.09336181640626Q226.42703125000003 -190.4 232.02703125000002 -185.36L252.74703125000002 -166.88000000000002L242.88381205897178 -138.88000000000002Q235.76037597656253 -116.48000000000002 239.3070397949219 -99.68Q242.85370361328128 -82.88000000000001 249.94703125000004 -70.56Q252.74703125000002 -64.4 258.8136181640625 -60.293378906250005Q264.880205078125 -56.186757812500005 272.72020507812505 -55.06675781250001Q277.200205078125 -54.506757812500005 281.120205078125 -51.7067578125Q285.04020507812504 -48.906757812500004 285.04020507812504 -42.74675781250001Q285.04020507812504 -31.919931640625002 281.1201538085938 -26.87988037109375Q277.2001025390625 -21.8398291015625 271.6001025390625 -20.719829101562503Q253.12010253906251 -18.4798291015625 236.60008544921877 -26.3197265625Q220.08006835937502 -34.1596240234375 206.64006835937502 -59.91962402343751Q204.400068359375 -63.279624023437506 200.760068359375 -72.5196240234375Q197.120068359375 -81.75962402343751 196.560068359375 -84.55962402343751Q194.32006835937503 -81.75962402343751 189.84011962890628 -76.43969238281251Q185.36017089843753 -71.11976074218751 182.00017089843752 -67.75976074218751Q142.24017089843753 -27.439760742187502 113.68086072935677 -14.839794921875Q85.121550560276 -2.2398291015625 66.2668603515625 -14.559829101562501ZM93.52041015625001 -56.00013671875001Q96.1338232421875 -54.32020507812501 105.74708251953126 -58.89354980468751Q115.360341796875 -63.466894531250006 129.36034179687502 -74.66689453125001Q148.400341796875 -90.90689453125 163.05353271484375 -104.53337890625001Q177.70672363281253 -118.15986328125001 189.46672363281252 -134.95986328125002L201.7867236328125 -155.11986328125002Q196.18672363281252 -167.99986328125001 191.05343017578127 -172.19984619140627Q185.92013671875003 -176.39982910156252 181.44013671875 -176.39982910156252Q174.16013671875 -176.39982910156252 162.68022216796876 -165.75991455078128Q151.20030761718752 -155.12 137.38704833984377 -135.89343017578125Q123.57378906250001 -116.6668603515625 108.26709960937501 -90.160205078125Q101.5470654296875 -78.21351562500001 97.53373779296876 -67.10682617187501Q93.52041015625001 -56.00013671875001 93.52041015625001 -56.00013671875001Z"/>
</svg>